<svg xmlns="http://www.w3.org/2000/svg" viewBox="0 0 400 300">
  <!-- Cupola camera frame 3: night pass, dense stars, faint airglow band, no limb. -->
  <rect width="400" height="300" fill="#04060c"/>
  <g fill="#dde5f0">
    <circle cx="28" cy="30" r="1.2"/>
    <circle cx="84" cy="66" r="1"/>
    <circle cx="140" cy="22" r="1.4"/>
    <circle cx="196" cy="84" r="1"/>
    <circle cx="252" cy="40" r="1.1"/>
    <circle cx="308" cy="90" r="1.3"/>
    <circle cx="364" cy="28" r="1"/>
    <circle cx="56" cy="128" r="0.9"/>
    <circle cx="120" cy="158" r="1"/>
    <circle cx="184" cy="132" r="1.2"/>
    <circle cx="248" cy="170" r="0.9"/>
    <circle cx="312" cy="146" r="1"/>
    <circle cx="376" cy="182" r="1.1"/>
    <circle cx="40" cy="204" r="1"/>
    <circle cx="164" cy="216" r="0.8"/>
    <circle cx="288" cy="226" r="1"/>
  </g>
  <path d="M0 258 Q 200 236 400 262" fill="none" stroke="#2c7a5e" stroke-width="8" opacity="0.35"/>
  <path d="M0 258 Q 200 236 400 262" fill="none" stroke="#48b98c" stroke-width="2.5" opacity="0.5"/>
  <text x="388" y="292" font-family="monospace" font-size="10" fill="#31405c" text-anchor="end">F3</text>
</svg>
